#!OML:ASF I:\Actors\actors\Patient Classification 1\Patient 1\Session 1\Subject1.ASF
:FULLY-SPECIFIED
:DEGREES
899
root 0.750683 17.5319 8.97706 11.6859 -1.32505 -9.34765
lowerback 1.40236 0.137423 4.61319
upperback -7.41471 0.722358 3.67885
thorax -8.59686 0.18485 1.24563
lowerneck -17.964 -1.96989 0.908879
upperneck 26.5573 -3.68227 1.84037
head 11.6856 -1.33049 -0.0337096
rclavicle -6.55679e-015 4.96962e-015
rhumerus -8.29468 17.0401 -93.3749
rradius 80.2852
rwrist -25.4055
rhand -27.5039 -54.6041
rfingers 7.12502
rthumb -0.906759 275.418
lclavicle -6.55679e-015 4.96962e-015
lhumerus 45.7323 -65.3213 44.3276
lradius 61.9517
lwrist -9.69388
lhand -43.1361 -39.7637
lfingers 7.12502
lthumb -15.9894 -10.4036
rfemur -7.73209 27.6484 23.576
rtibia 1.17255
rfoot -10.7868 -27.5336
rtoes 3.16823
lfemur 2.81842 -53.3989 -10.2915
ltibia -4.87371
lfoot -31.0989 59.3587
ltoes 17.776
900
root 0.751315 17.5317 8.98129 11.6762 -0.820249 -9.42064
lowerback 1.62465 0.191357 4.70216
upperback -7.52082 0.822372 3.63553
thorax -8.84336 0.222775 1.14418
lowerneck -18.0057 -2.17389 0.720316
upperneck 26.5178 -3.98791 2.09148
head 11.6916 -1.45384 0.044124
rclavicle 1.28573e-014 -2.72583e-014
rhumerus -7.95125 16.4291 -91.816
rradius 85.5658
rwrist -20.0585
rhand -24.8136 -56.2122
rfingers 7.12502
rthumb 1.69161 273.815
lclavicle 1.28573e-014 -2.72583e-014
lhumerus 45.4292 -63.9591 44.6033
lradius 65.5124
lwrist -15.484
lhand -45.9749 -47.2594
lfingers 7.12502
lthumb -18.7216 -18.1403
rfemur -7.65005 27.6143 23.707
rtibia 1.11265
rfoot -10.9414 -27.9081
rtoes 3.39216
lfemur 2.22479 -52.7405 -9.67951
ltibia -4.84118
lfoot -28.8922 58.6556
ltoes 16.4641
901
root 0.750154 17.5335 8.98713 11.7149 -0.517176 -9.48044
lowerback 1.92024 0.282243 4.92879
upperback -7.68811 0.98053 3.45799
thorax -9.19681 0.270521 0.818338
lowerneck -18.0404 -2.33312 0.654764
upperneck 26.5244 -4.28326 2.38572
head 11.7143 -1.55369 0.118432
rclavicle 9.44227e-015 2.50469e-014
rhumerus -7.46286 15.7695 -90.5017
rradius 90.2949
rwrist -13.3491
rhand -25.7481 -53.7652
rfingers 7.12502
rthumb 0.788996 276.256
lclavicle 9.44227e-015 2.50469e-014
lhumerus 44.3777 -62.49 45.5238
lradius 69.2453
lwrist -20.1433
lhand -47.9121 -53.2768
lfingers 7.12502
lthumb -20.584 -24.3481
rfemur -7.63862 27.5234 23.791
rtibia 1.07455
rfoot -10.9636 -28.0517
rtoes 3.16663
lfemur 1.75845 -52.1342 -9.19808
ltibia -4.82968
lfoot -27.5595 58.0504
ltoes 15.6966
902
root 0.748986 17.5351 8.99297 11.7518 -0.310801 -9.53661
lowerback 1.79833 0.350214 4.56396
upperback -7.60616 1.05453 3.71363
thorax -9.04089 0.348101 1.28421
lowerneck -18.1464 -2.44167 0.38155
upperneck 26.4254 -4.34782 2.38416
head 11.7037 -1.61055 0.153046
rclavicle 4.48819e-016 -3.47128e-014
rhumerus -6.24976 15.6814 -88.6613
rradius 94.5464
rwrist -6.7057
rhand -26.5186 -51.0122
rfingers 7.12502
rthumb 0.0448337 279.008
lclavicle 4.48819e-016 -3.47128e-014
lhumerus 43.1917 -60.7008 47.0071
lradius 72.8675
lwrist -20.7347
lhand -48.8278 -58.9646
lfingers 7.12502
lthumb -21.4636 -30.1336
rfemur -7.63517 27.4865 23.8644
rtibia 1.05253
rfoot -10.9905 -28.1807
rtoes 3.0226
lfemur 1.38838 -51.5368 -8.80326
ltibia -4.82913
lfoot -26.5795 57.4859
ltoes 15.11
903
root 0.746155 17.5371 8.99688 11.7377 -0.269422 -9.6008
lowerback 2.16984 0.431613 4.8811
upperback -7.73556 1.2061 3.49668
thorax -9.39524 0.383668 0.864012
lowerneck -18.222 -2.51257 0.336496
upperneck 26.5772 -4.53428 2.68844
head 11.7911 -1.65483 0.243146
rclavicle -1.63221e-015 -2.32827e-014
rhumerus -5.13377 15.6379 -87.7476
rradius 98.4718
rwrist -1.14375
rhand -28.4884 -48.0448
rfingers 7.12502
rthumb -1.85763 281.984
lclavicle -1.63221e-015 -2.32827e-014
lhumerus 41.7247 -59.344 47.9799
lradius 76.6162
lwrist -20.6464
lhand -49.4935 -62.6283
lfingers 7.12502
lthumb -22.1029 -33.8716
rfemur -7.59513 27.5461 23.9649
rtibia 1.06652
rfoot -11.1221 -28.2208
rtoes 3.49917
lfemur 1.33585 -51.2804 -8.66297
ltibia -4.84483
lfoot -26.336 57.2343
ltoes 15.0371
904
root 0.743836 17.5396 8.99897 11.706 -0.357147 -9.59476
lowerback 2.31468 0.510319 4.85336
upperback -7.69088 1.3181 3.48169
thorax -9.42946 0.439795 0.850599
lowerneck -18.2673 -2.54686 0.0990531
upperneck 26.5072 -4.57617 2.9277
head 11.7869 -1.66684 0.364954
rclavicle 1.25793e-014 -1.50828e-014
rhumerus -3.42166 16.4031 -86.5106
rradius 101.893
rwrist 3.03042
rhand -29.7329 -46.3109
rfingers 7.12502
rthumb -3.05953 283.731
lclavicle 1.25793e-014 -1.50828e-014
lhumerus 39.8695 -57.7228 49.5436
lradius 80.1259
lwrist -20.6254
lhand -50.3766 -64.8253
lfingers 7.12502
lthumb -22.9506 -36.1714
rfemur -7.56179 27.5654 23.9793
rtibia 1.08573
rfoot -11.1604 -28.123
rtoes 3.76514
lfemur 1.42679 -51.2214 -8.75704
ltibia -4.82068
lfoot -26.4153 57.2288
ltoes 15.0412
905
root 0.74242 17.5415 9.00053 11.6952 -0.541616 -9.53061
lowerback 2.43633 0.579008 4.80286
upperback -7.64088 1.41052 3.4438
thorax -9.44378 0.487163 0.827168
lowerneck -18.2855 -2.5528 -0.0107207
upperneck 26.3753 -4.5721 3.02524
head 11.745 -1.66556 0.420124
rclavicle -5.39203e-015 -1.5207e-014
rhumerus -1.48216 17.6582 -85.2607
rradius 104.738
rwrist 6.47584
rhand -29.3768 -45.6643
rfingers 7.12502
rthumb -2.71558 284.373
lclavicle -5.39203e-015 -1.5207e-014
lhumerus 37.6669 -56.0641 51.5264
lradius 83.3122
lwrist -20.3412
lhand -51.4221 -64.5508
lfingers 7.12502
lthumb -23.9535 -36.025
rfemur -7.57993 27.5637 23.8983
rtibia 1.10544
rfoot -11.0781 -27.9821
rtoes 3.52467
lfemur 1.53821 -51.2318 -8.95991
ltibia -4.76895
lfoot -26.5811 57.3712
ltoes 15.0466
906
root 0.74201 17.5418 9.00142 11.7399 -0.834183 -9.498
lowerback 2.3108 0.68107 4.73614
upperback -7.48074 1.52489 3.45928
thorax -9.18988 0.553811 0.867291
lowerneck -18.3107 -2.54219 -0.0803527
upperneck 26.0895 -4.51457 3.00712
head 11.6396 -1.65401 0.433918
rclavicle 2.89752e-014 -5.50261e-014
rhumerus 0.752432 19.2248 -83.8464
rradius 106.991
rwrist 9.30194
rhand -29.8192 -44.6164
rfingers 7.12502
rthumb -3.14288 285.427
lclavicle 2.89752e-014 -5.50261e-014
lhumerus 35.6446 -54.2238 53.595
lradius 86.0911
lwrist -19.6336
lhand -51.4436 -66.5872
lfingers 7.12502
lthumb -23.974 -38.0642
rfemur -7.6937 27.5082 23.8055
rtibia 1.14745
rfoot -10.9156 -27.6936
rtoes 3.14677
lfemur 1.66462 -51.3293 -9.13361
ltibia -4.74369
lfoot -27.2517 57.6249
ltoes 15.5275
907
root 0.743514 17.5408 9.00369 11.8541 -1.24397 -9.5005
lowerback 2.06083 0.824616 4.77652
upperback -7.31819 1.68908 3.43002
thorax -8.85628 0.636555 0.797793
lowerneck -18.2462 -2.5289 -0.17518
upperneck 25.7331 -4.47943 3.11883
head 11.4949 -1.64054 0.497347
rclavicle 7.79919e-015 1.20637e-014
rhumerus 2.98188 20.9759 -82.4777
rradius 108.789
rwrist 11.4997
rhand -30.2755 -43.2594
rfingers 7.12502
rthumb -3.58354 286.791
lclavicle 7.79919e-015 1.20637e-014
lhumerus 33.4906 -52.3406 55.8671
lradius 88.6341
lwrist -18.5271
lhand -51.2443 -67.7888
lfingers 7.12502
lthumb -23.7829 -39.2408
rfemur -7.88585 27.3159 23.7108
rtibia 1.18754
rfoot -10.6493 -27.1332
rtoes 2.61876
lfemur 1.86881 -51.593 -9.32626
ltibia -4.77559
lfoot -28.5562 58.0506
ltoes 16.3751
908
root 0.745902 17.5392 9.00831 12.0111 -1.7148 -9.4986
lowerback 1.66392 0.986616 4.82434
upperback -7.14738 1.86443 3.37797
thorax -8.42651 0.725665 0.703377
lowerneck -18.0793 -2.52893 -0.230375
upperneck 25.3533 -4.47797 3.24563
head 11.3224 -1.6383 0.555296
rclavicle -2.27849e-014 -1.22501e-014
rhumerus 4.73562 22.616 -81.4756
rradius 109.894
rwrist 14.1317
rhand -30.6381 -41.5534
rfingers 7.12502
rthumb -3.9337 288.503
lclavicle -2.27849e-014 -1.22501e-014
lhumerus 31.263 -50.7084 58.2388
lradius 90.6943
lwrist -14.7252
lhand -50.8301 -68.7094
lfingers 7.12502
lthumb -23.3856 -40.1102
rfemur -8.09843 27.1886 23.5851
rtibia 1.19792
rfoot -10.4531 -26.5339
rtoes 2.43607
lfemur 2.15833 -52.0668 -9.60723
ltibia -4.82022
lfoot -30.268 58.6276
ltoes 17.5186
909
root 0.745766 17.5379 9.01223 12.1572 -2.17701 -9.46916
lowerback 1.51112 1.14571 4.92266
upperback -7.14209 2.06069 3.22624
thorax -8.31717 0.811336 0.474088
lowerneck -17.9181 -2.52508 -0.0874082
upperneck 25.271 -4.51372 3.25574
head 11.2574 -1.6432 0.531494
rclavicle 1.3887e-014 -3.24019e-014
rhumerus 5.27981 23.7857 -81.4149
rradius 109.904
rwrist 18.1388
rhand -31.2177 -39.3704
rfingers 7.12502
rthumb -4.4934 290.697
lclavicle 1.3887e-014 -3.24019e-014
lhumerus 28.6084 -49.4179 60.9405
lradius 92.3055
lwrist -8.01319
lhand -51.7798 -66.1478
lfingers 7.12502
lthumb -24.2964 -37.6675
rfemur -8.28828 27.3065 23.4227
rtibia 1.18284
rfoot -10.3714 -26.1784
rtoes 2.69588
lfemur 2.41656 -52.5333 -9.89854
ltibia -4.82327
lfoot -31.8855 59.175
ltoes 18.5475
